# xmcd CD database file
#
# Track frame offsets:
#	150
#	19085
#	39325
#	59375
#	76182
#	98827
#	126120
#	144642
#	164337
#	182717
#
# Disc length: 2698 seconds
#
# Revision: 0
# Processed by: cddbd v1.5.1PL0 Copyright (c) Steve Scherf et al.
# Submitted via: CDex 1.51
#
DISCID=7c0a880a
DTITLE=DOGGY BAG - DOGGY BAG [2]
DYEAR=2000
DGENRE=Rock
TTITLE0=Nonfiction kiss
TTITLE1=Iron wing
TTITLE2=Miss you
TTITLE3=風
TTITLE4=確率〜I meet you〜
TTITLE5=Love Paradise〔Aso★vitamix〕
TTITLE6=WILD and SO SWEET
TTITLE7=Ready Lady
TTITLE8=キミじゃなきゃ
TTITLE9=戯れ
EXTD=YEAR: 2000
EXTT0=
EXTT1=
EXTT2=
EXTT3=
EXTT4=
EXTT5=
EXTT6=
EXTT7=
EXTT8=
EXTT9=
PLAYORDER=
